<?xml version="1.0" encoding="UTF-8" standalone="no"?>
<!DOCTYPE svg PUBLIC "-//W3C//DTD SVG 1.1//EN" "http://www.w3.org/Graphics/SVG/1.1/DTD/svg11.dtd">
<svg width="100%" height="100%" viewBox="0 0 32 32" version="1.1" xmlns="http://www.w3.org/2000/svg" xmlns:xlink="http://www.w3.org/1999/xlink" xml:space="preserve" xmlns:serif="http://www.serif.com/" style="fill-rule:evenodd;clip-rule:evenodd;stroke-linejoin:round;stroke-miterlimit:2;">
    <g transform="matrix(1,0,0,1,-3.10154,-0.622891)">
        <path d="M12.5,4C12.5,3.448 12.052,3 11.5,3L9,3C8.448,3 8,3.448 8,4L8,6.5C8,7.052 8.448,7.5 9,7.5L11.5,7.5C12.052,7.5 12.5,7.052 12.5,6.5L12.5,4Z" style="fill:rgb(20,184,166);fill-opacity:0.9;"/>
    </g>
    <g transform="matrix(1,0,0,1,-3.13999,0.356258)">
        <path d="M18,4C18,3.448 17.552,3 17,3L14.5,3C13.948,3 13.5,3.448 13.5,4L13.5,6.5C13.5,7.052 13.948,7.5 14.5,7.5L17,7.5C17.552,7.5 18,7.052 18,6.5L18,4Z" style="fill:rgb(13,148,136);fill-opacity:0.85;"/>
    </g>
    <g transform="matrix(1,0,0,1,0.00925038,-0.573972)">
        <path d="M9.5,9.5C9.5,8.948 9.052,8.5 8.5,8.5L6,8.5C5.448,8.5 5,8.948 5,9.5L5,12C5,12.552 5.448,13 6,13L8.5,13C9.052,13 9.5,12.552 9.5,12L9.5,9.5Z" style="fill:rgb(13,148,136);fill-opacity:0.85;"/>
    </g>
    <g transform="matrix(1,0,0,1,0,0.185455)">
        <path d="M15,9.5C15,8.948 14.552,8.5 14,8.5L11.5,8.5C10.948,8.5 10.5,8.948 10.5,9.5L10.5,12C10.5,12.552 10.948,13 11.5,13L14,13C14.552,13 15,12.552 15,12L15,9.5Z" style="fill:rgb(20,184,166);fill-opacity:0.95;"/>
    </g>
    <g transform="matrix(1,0,0,1,0.253676,-0.538628)">
        <path d="M9.5,15C9.5,14.448 9.052,14 8.5,14L6,14C5.448,14 5,14.448 5,15L5,17.5C5,18.052 5.448,18.5 6,18.5L8.5,18.5C9.052,18.5 9.5,18.052 9.5,17.5L9.5,15Z" style="fill:rgb(20,184,166);fill-opacity:0.9;"/>
    </g>
    <path d="M15,15C15,14.448 14.552,14 14,14L11.5,14C10.948,14 10.5,14.448 10.5,15L10.5,17.5C10.5,18.052 10.948,18.5 11.5,18.5L14,18.5C14.552,18.5 15,18.052 15,17.5L15,15Z" style="fill:rgb(13,148,136);fill-opacity:0.95;"/>
    <g transform="matrix(1,0,0,1,-0.29426,-0.486109)">
        <path d="M12.5,20.5C12.5,19.948 12.052,19.5 11.5,19.5L9,19.5C8.448,19.5 8,19.948 8,20.5L8,23C8,23.552 8.448,24 9,24L11.5,24C12.052,24 12.5,23.552 12.5,23L12.5,20.5Z" style="fill:rgb(20,184,166);fill-opacity:0.85;"/>
    </g>
    <g transform="matrix(-1,0,0,1,33.9894,-0.633904)">
        <path d="M12.5,4C12.5,3.448 12.052,3 11.5,3L9,3C8.448,3 8,3.448 8,4L8,6.5C8,7.052 8.448,7.5 9,7.5L11.5,7.5C12.052,7.5 12.5,7.052 12.5,6.5L12.5,4Z" style="fill:rgb(13,148,136);fill-opacity:0.9;"/>
    </g>
    <g transform="matrix(-1,0,0,1,34.14,0.345245)">
        <path d="M18,4C18,3.448 17.552,3 17,3L14.5,3C13.948,3 13.5,3.448 13.5,4L13.5,6.5C13.5,7.052 13.948,7.5 14.5,7.5L17,7.5C17.552,7.5 18,7.052 18,6.5L18,4Z" style="fill:rgb(20,184,166);fill-opacity:0.85;"/>
    </g>
    <g transform="matrix(-1,0,0,1,30.8786,-0.584985)">
        <path d="M9.5,9.5C9.5,8.948 9.052,8.5 8.5,8.5L6,8.5C5.448,8.5 5,8.948 5,9.5L5,12C5,12.552 5.448,13 6,13L8.5,13C9.052,13 9.5,12.552 9.5,12L9.5,9.5Z" style="fill:rgb(20,184,166);fill-opacity:0.85;"/>
    </g>
    <g transform="matrix(-1,0,0,1,31,0.185455)">
        <path d="M15,9.5C15,8.948 14.552,8.5 14,8.5L11.5,8.5C10.948,8.5 10.5,8.948 10.5,9.5L10.5,12C10.5,12.552 10.948,13 11.5,13L14,13C14.552,13 15,12.552 15,12L15,9.5Z" style="fill:rgb(13,148,136);fill-opacity:0.95;"/>
    </g>
    <g transform="matrix(-1,0,0,1,30.6829,-0.538628)">
        <path d="M9.5,15C9.5,14.448 9.052,14 8.5,14L6,14C5.448,14 5,14.448 5,15L5,17.5C5,18.052 5.448,18.5 6,18.5L8.5,18.5C9.052,18.5 9.5,18.052 9.5,17.5L9.5,15Z" style="fill:rgb(13,148,136);fill-opacity:0.9;"/>
    </g>
    <g transform="matrix(-1,0,0,1,31,-0.011013)">
        <path d="M15,15C15,14.448 14.552,14 14,14L11.5,14C10.948,14 10.5,14.448 10.5,15L10.5,17.5C10.5,18.052 10.948,18.5 11.5,18.5L14,18.5C14.552,18.5 15,18.052 15,17.5L15,15Z" style="fill:rgb(20,184,166);fill-opacity:0.95;"/>
    </g>
    <g transform="matrix(-1,0,0,1,31.148,-0.486109)">
        <path d="M12.5,20.5C12.5,19.948 12.052,19.5 11.5,19.5L9,19.5C8.448,19.5 8,19.948 8,20.5L8,23C8,23.552 8.448,24 9,24L11.5,24C12.052,24 12.5,23.552 12.5,23L12.5,20.5Z" style="fill:rgb(20,184,166);fill-opacity:0.85;"/>
    </g>
    <g transform="matrix(1,0,0,1,-0.306059,-0.208605)">
        <path d="M18,20.5C18,19.948 17.552,19.5 17,19.5L14.5,19.5C13.948,19.5 13.5,19.948 13.5,20.5L13.5,23C13.5,23.552 13.948,24 14.5,24L17,24C17.552,24 18,23.552 18,23L18,20.5Z" style="fill:rgb(13,148,136);fill-opacity:0.95;"/>
    </g>
    <g transform="matrix(1,0,0,1,-0.306059,-0.629637)">
        <path d="M18,26C18,25.448 17.552,25 17,25L14.5,25C13.948,25 13.5,25.448 13.5,26L13.5,28.5C13.5,29.052 13.948,29.5 14.5,29.5L17,29.5C17.552,29.5 18,29.052 18,28.5L18,26Z" style="fill:rgb(20,184,166);fill-opacity:0.95;"/>
    </g>
</svg>
